{
  "asset": {
    "version": "2.0",
    "generator": "Sketchup glTF Exporter by Evan Prananta."
  },
  "scene": 0,
  "scenes": [
    {
      "nodes": [
        0
      ]
    }
  ],
  "samplers": [
    {
    }
  ],
  "nodes": [
    {
      "name": "root",
      "mesh": 0
    }
  ],
  "materials": [
    {
      "pbrMetallicRoughness": {
        "baseColorFactor": [
          0.6121,
          0.6121,
          0.6121,
          1.0
        ],
        "metallicFactor": 0.1,
        "roughnessFactor": 0.5
      },
      "name": "default material",
      "doubleSided": true
    }
  ],
  "meshes": [
    {
      "primitives": [
        {
          "attributes": {
            "POSITION": 0,
            "NORMAL": 1
          },
          "indices": 2,
          "mode": 4,
          "material": 0
        }
      ]
    }
  ],
  "accessors": [
    {
      "bufferView": 0,
      "componentType": 5126,
      "count": 6532,
      "type": "VEC3",
      "min": [
        0.01607680966777625,
        -2.3392268863177903e-17,
        -1.010024741818855
      ],
      "max": [
        4.5360768096677795,
        2.389000002486425,
        -0.31002474181885414
      ]
    },
    {
      "bufferView": 1,
      "componentType": 5126,
      "count": 6532,
      "type": "VEC3"
    },
    {
      "bufferView": 2,
      "componentType": 5123,
      "count": 16152,
      "type": "SCALAR"
    }
  ],
  "bufferViews": [
    {
      "buffer": 0,
      "byteLength": 78384,
      "target": 34962,
      "byteStride": 12
    },
    {
      "buffer": 0,
      "byteOffset": 78384,
      "byteLength": 78384,
      "target": 34962,
      "byteStride": 12
    },
    {
      "buffer": 0,
      "byteOffset": 156768,
      "byteLength": 32304,
      "target": 34963
    }
  ],
  "buffers": [
    {
      "uri": "data:application/octet-stream;base64,",
      "byteLength": 189072
    }
  ]
}